<?xml version="1.0" encoding="UTF-8" standalone="no"?>
<!DOCTYPE svg PUBLIC "-//W3C//DTD SVG 1.1//EN"
 "http://www.w3.org/Graphics/SVG/1.1/DTD/svg11.dtd">
<!-- Generated by graphviz version 2.48.0 (20210717.1556)
 -->
<!-- Title: G Pages: 1 -->
<svg width="119pt" height="66pt"
 viewBox="0.00 0.00 119.20 66.20" xmlns="http://www.w3.org/2000/svg" xmlns:xlink="http://www.w3.org/1999/xlink">
<g id="graph0" class="graph" transform="scale(1 1) rotate(0) translate(21.6 44.6)">
<title>G</title>
<polygon fill="#111111" stroke="transparent" points="-21.6,21.6 -21.6,-44.6 97.6,-44.6 97.6,21.6 -21.6,21.6"/>
<!-- index.vue -->
<g id="node1" class="node">
<title>index.vue</title>
<path fill="none" stroke="#cfffac" d="M68.33,-23C68.33,-23 7.67,-23 7.67,-23 3.83,-23 0,-19.17 0,-15.33 0,-15.33 0,-7.67 0,-7.67 0,-3.83 3.83,0 7.67,0 7.67,0 68.33,0 68.33,0 72.17,0 76,-3.83 76,-7.67 76,-7.67 76,-15.33 76,-15.33 76,-19.17 72.17,-23 68.33,-23"/>
<text text-anchor="middle" x="38" y="-7.8" font-family="Arial" font-size="14.00" fill="#cfffac">index.vue</text>
</g>
</g>
</svg>
